G04 #@! TF.FileFunction,Copper,L2,Bot,Signal*
%FSLAX46Y46*%
G04 Gerber Fmt 4.6, Leading zero omitted, Abs format (unit mm)*
G04 Created by KiCad (PCBNEW 4.0.7) date 07/21/18 23:28:47*
%MOMM*%
%LPD*%
G01*
G04 APERTURE LIST*
%ADD10C,0.100000*%
%ADD11O,2.499360X1.501140*%
%ADD12R,1.397000X1.397000*%
%ADD13C,1.397000*%
%ADD14R,1.727200X1.727200*%
%ADD15O,1.727200X1.727200*%
%ADD16R,2.032000X2.032000*%
%ADD17O,2.032000X2.032000*%
%ADD18C,0.800000*%
G04 APERTURE END LIST*
D10*
D11*
X151130000Y-104140000D03*
X151130000Y-101600000D03*
X151130000Y-106680000D03*
D12*
X170942000Y-99822000D03*
D13*
X170942000Y-107442000D03*
D14*
X163000000Y-109500000D03*
D15*
X163000000Y-112040000D03*
D16*
X163000000Y-95000000D03*
D17*
X160460000Y-95000000D03*
D16*
X148500000Y-95000000D03*
D17*
X151040000Y-95000000D03*
D13*
X137000000Y-95690000D03*
X137000000Y-103310000D03*
D18*
X163000000Y-95000000D02*
X163000000Y-109500000D01*
X163000000Y-95000000D02*
X170438000Y-95000000D01*
X170942000Y-95504000D02*
X170942000Y-99822000D01*
X170438000Y-95000000D02*
X170942000Y-95504000D01*
X163000000Y-112040000D02*
X170916000Y-112040000D01*
X170942000Y-112014000D02*
X170942000Y-107442000D01*
X170916000Y-112040000D02*
X170942000Y-112014000D01*
X151130000Y-106680000D02*
X151130000Y-112130000D01*
X151220000Y-112040000D02*
X163000000Y-112040000D01*
X151130000Y-112130000D02*
X151220000Y-112040000D01*
X151040000Y-95000000D02*
X151040000Y-101510000D01*
X151040000Y-101510000D02*
X151130000Y-101600000D01*
X159960000Y-95000000D02*
X151040000Y-95000000D01*
X151040000Y-95000000D02*
X151540000Y-95500000D01*
X151540000Y-95500000D02*
X152000000Y-95500000D01*
X148500000Y-95000000D02*
X137690000Y-95000000D01*
X137690000Y-95000000D02*
X137000000Y-95690000D01*
X151130000Y-104140000D02*
X137830000Y-104140000D01*
X137830000Y-104140000D02*
X137000000Y-103310000D01*
M02*
