G04 #@! TF.FileFunction,Legend,Top*
%FSLAX46Y46*%
G04 Gerber Fmt 4.6, Leading zero omitted, Abs format (unit mm)*
G04 Created by KiCad (PCBNEW 4.0.7) date 07/21/18 23:28:47*
%MOMM*%
%LPD*%
G01*
G04 APERTURE LIST*
%ADD10C,0.100000*%
%ADD11C,0.150000*%
G04 APERTURE END LIST*
D10*
D11*
X170942000Y-99822000D02*
X170942000Y-100584000D01*
X170942000Y-100584000D02*
X169926000Y-100584000D01*
X169926000Y-100584000D02*
X169926000Y-106680000D01*
X169926000Y-106680000D02*
X170942000Y-106680000D01*
X170942000Y-106680000D02*
X170942000Y-107442000D01*
X170942000Y-106680000D02*
X171958000Y-106680000D01*
X171958000Y-106680000D02*
X171958000Y-100584000D01*
X171958000Y-100584000D02*
X170942000Y-100584000D01*
X169926000Y-101092000D02*
X171958000Y-101092000D01*
X171958000Y-101346000D02*
X169926000Y-101346000D01*
X163000000Y-107950000D02*
X164550000Y-107950000D01*
X164550000Y-109500000D02*
X164550000Y-107950000D01*
X161730000Y-108230000D02*
X161730000Y-110770000D01*
X164270000Y-113310000D02*
X164270000Y-110770000D01*
X164270000Y-110770000D02*
X161730000Y-110770000D01*
X161730000Y-110770000D02*
X161730000Y-113310000D01*
X161730000Y-113310000D02*
X164270000Y-113310000D01*
X161730000Y-96270000D02*
X159190000Y-96270000D01*
X164550000Y-96550000D02*
X163000000Y-96550000D01*
X161730000Y-96270000D02*
X161730000Y-93730000D01*
X163000000Y-93450000D02*
X164550000Y-93450000D01*
X164550000Y-93450000D02*
X164550000Y-96550000D01*
X161730000Y-93730000D02*
X159190000Y-93730000D01*
X159190000Y-93730000D02*
X159190000Y-96270000D01*
X149770000Y-93730000D02*
X152310000Y-93730000D01*
X146950000Y-93450000D02*
X148500000Y-93450000D01*
X149770000Y-93730000D02*
X149770000Y-96270000D01*
X148500000Y-96550000D02*
X146950000Y-96550000D01*
X146950000Y-96550000D02*
X146950000Y-93450000D01*
X149770000Y-96270000D02*
X152310000Y-96270000D01*
X152310000Y-96270000D02*
X152310000Y-93730000D01*
X137000000Y-95690000D02*
X137000000Y-96198000D01*
X137000000Y-103310000D02*
X137000000Y-102802000D01*
X137000000Y-102802000D02*
X138016000Y-102802000D01*
X138016000Y-102802000D02*
X138016000Y-96198000D01*
X138016000Y-96198000D02*
X135984000Y-96198000D01*
X135984000Y-96198000D02*
X135984000Y-102802000D01*
X135984000Y-102802000D02*
X137000000Y-102802000D01*
X137508000Y-96198000D02*
X138016000Y-96706000D01*
X154217619Y-105505238D02*
X154170000Y-105600476D01*
X154074762Y-105695714D01*
X153931905Y-105838571D01*
X153884286Y-105933810D01*
X153884286Y-106029048D01*
X154122381Y-105981429D02*
X154074762Y-106076667D01*
X153979524Y-106171905D01*
X153789048Y-106219524D01*
X153455714Y-106219524D01*
X153265238Y-106171905D01*
X153170000Y-106076667D01*
X153122381Y-105981429D01*
X153122381Y-105790952D01*
X153170000Y-105695714D01*
X153265238Y-105600476D01*
X153455714Y-105552857D01*
X153789048Y-105552857D01*
X153979524Y-105600476D01*
X154074762Y-105695714D01*
X154122381Y-105790952D01*
X154122381Y-105981429D01*
X154122381Y-104600476D02*
X154122381Y-105171905D01*
X154122381Y-104886191D02*
X153122381Y-104886191D01*
X153265238Y-104981429D01*
X153360476Y-105076667D01*
X153408095Y-105171905D01*
X169362381Y-104624095D02*
X168362381Y-104624095D01*
X168362381Y-104386000D01*
X168410000Y-104243142D01*
X168505238Y-104147904D01*
X168600476Y-104100285D01*
X168790952Y-104052666D01*
X168933810Y-104052666D01*
X169124286Y-104100285D01*
X169219524Y-104147904D01*
X169314762Y-104243142D01*
X169362381Y-104386000D01*
X169362381Y-104624095D01*
X169362381Y-103100285D02*
X169362381Y-103671714D01*
X169362381Y-103386000D02*
X168362381Y-103386000D01*
X168505238Y-103481238D01*
X168600476Y-103576476D01*
X168648095Y-103671714D01*
X159543334Y-112732381D02*
X159067143Y-112732381D01*
X159067143Y-111732381D01*
X160400477Y-112732381D02*
X159829048Y-112732381D01*
X160114762Y-112732381D02*
X160114762Y-111732381D01*
X160019524Y-111875238D01*
X159924286Y-111970476D01*
X159829048Y-112018095D01*
X160701905Y-98202381D02*
X160701905Y-97202381D01*
X161082858Y-97202381D01*
X161178096Y-97250000D01*
X161225715Y-97297619D01*
X161273334Y-97392857D01*
X161273334Y-97535714D01*
X161225715Y-97630952D01*
X161178096Y-97678571D01*
X161082858Y-97726190D01*
X160701905Y-97726190D01*
X162225715Y-98202381D02*
X161654286Y-98202381D01*
X161940000Y-98202381D02*
X161940000Y-97202381D01*
X161844762Y-97345238D01*
X161749524Y-97440476D01*
X161654286Y-97488095D01*
X149120805Y-98195581D02*
X149120805Y-97195581D01*
X149501758Y-97195581D01*
X149596996Y-97243200D01*
X149644615Y-97290819D01*
X149692234Y-97386057D01*
X149692234Y-97528914D01*
X149644615Y-97624152D01*
X149596996Y-97671771D01*
X149501758Y-97719390D01*
X149120805Y-97719390D01*
X150073186Y-97290819D02*
X150120805Y-97243200D01*
X150216043Y-97195581D01*
X150454139Y-97195581D01*
X150549377Y-97243200D01*
X150596996Y-97290819D01*
X150644615Y-97386057D01*
X150644615Y-97481295D01*
X150596996Y-97624152D01*
X150025567Y-98195581D01*
X150644615Y-98195581D01*
X134293334Y-99952381D02*
X133960000Y-99476190D01*
X133721905Y-99952381D02*
X133721905Y-98952381D01*
X134102858Y-98952381D01*
X134198096Y-99000000D01*
X134245715Y-99047619D01*
X134293334Y-99142857D01*
X134293334Y-99285714D01*
X134245715Y-99380952D01*
X134198096Y-99428571D01*
X134102858Y-99476190D01*
X133721905Y-99476190D01*
X135245715Y-99952381D02*
X134674286Y-99952381D01*
X134960000Y-99952381D02*
X134960000Y-98952381D01*
X134864762Y-99095238D01*
X134769524Y-99190476D01*
X134674286Y-99238095D01*
M02*
